<?xml version="1.0" encoding="UTF-8" ?>
<svg version="1.1" width="32" height="32" xmlns="http://www.w3.org/2000/svg" shape-rendering="crispEdges">
<rect x="0" y="20" width="1" height="1" fill="#854C30" />
<rect x="0" y="21" width="1" height="1" fill="#D04648" />
<rect x="1" y="21" width="1" height="1" fill="#854C30" />
<rect x="2" y="21" width="1" height="1" fill="#854C30" />
<rect x="0" y="22" width="1" height="1" fill="#D04648" />
<rect x="1" y="22" width="1" height="1" fill="#D04648" />
<rect x="2" y="22" width="1" height="1" fill="#D27D2C" />
<rect x="3" y="22" width="1" height="1" fill="#854C30" />
<rect x="0" y="23" width="1" height="1" fill="#D04648" />
<rect x="1" y="23" width="1" height="1" fill="#D04648" />
<rect x="2" y="23" width="1" height="1" fill="#D04648" />
<rect x="3" y="23" width="1" height="1" fill="#D27D2C" />
<rect x="4" y="23" width="1" height="1" fill="#854C30" />
<rect x="0" y="24" width="1" height="1" fill="#D04648" />
<rect x="1" y="24" width="1" height="1" fill="#D04648" />
<rect x="2" y="24" width="1" height="1" fill="#D04648" />
<rect x="3" y="24" width="1" height="1" fill="#D04648" />
<rect x="4" y="24" width="1" height="1" fill="#D27D2C" />
<rect x="5" y="24" width="1" height="1" fill="#854C30" />
<rect x="0" y="25" width="1" height="1" fill="#D04648" />
<rect x="1" y="25" width="1" height="1" fill="#D04648" />
<rect x="2" y="25" width="1" height="1" fill="#D04648" />
<rect x="3" y="25" width="1" height="1" fill="#D04648" />
<rect x="4" y="25" width="1" height="1" fill="#D04648" />
<rect x="5" y="25" width="1" height="1" fill="#D27D2C" />
<rect x="6" y="25" width="1" height="1" fill="#854C30" />
<rect x="0" y="26" width="1" height="1" fill="#442434" />
<rect x="1" y="26" width="1" height="1" fill="#D2AA99" />
<rect x="2" y="26" width="1" height="1" fill="#D04648" />
<rect x="3" y="26" width="1" height="1" fill="#D04648" />
<rect x="4" y="26" width="1" height="1" fill="#D04648" />
<rect x="5" y="26" width="1" height="1" fill="#D04648" />
<rect x="6" y="26" width="1" height="1" fill="#D27D2C" />
<rect x="1" y="27" width="1" height="1" fill="#442434" />
<rect x="2" y="27" width="1" height="1" fill="#D27D2C" />
<rect x="3" y="27" width="1" height="1" fill="#D04648" />
<rect x="4" y="27" width="1" height="1" fill="#D04648" />
<rect x="5" y="27" width="1" height="1" fill="#D04648" />
<rect x="6" y="27" width="1" height="1" fill="#D27D2C" />
<rect x="1" y="28" width="1" height="1" fill="#442434" />
<rect x="2" y="28" width="1" height="1" fill="#D2AA99" />
<rect x="3" y="28" width="1" height="1" fill="#D04648" />
<rect x="4" y="28" width="1" height="1" fill="#D04648" />
<rect x="5" y="28" width="1" height="1" fill="#D04648" />
<rect x="6" y="28" width="1" height="1" fill="#D27D2C" />
<rect x="1" y="29" width="1" height="1" fill="#442434" />
<rect x="2" y="29" width="1" height="1" fill="#D27D2C" />
<rect x="3" y="29" width="1" height="1" fill="#D04648" />
<rect x="4" y="29" width="1" height="1" fill="#D04648" />
<rect x="5" y="29" width="1" height="1" fill="#D27D2C" />
<rect x="6" y="29" width="1" height="1" fill="#854C30" />
<rect x="0" y="30" width="1" height="1" fill="#442434" />
<rect x="1" y="30" width="1" height="1" fill="#D27D2C" />
<rect x="2" y="30" width="1" height="1" fill="#D2AA99" />
<rect x="3" y="30" width="1" height="1" fill="#D04648" />
<rect x="4" y="30" width="1" height="1" fill="#D27D2C" />
<rect x="5" y="30" width="1" height="1" fill="#854C30" />
<rect x="0" y="31" width="1" height="1" fill="#442434" />
<rect x="1" y="31" width="1" height="1" fill="#442434" />
<rect x="2" y="31" width="1" height="1" fill="#442434" />
<rect x="3" y="31" width="1" height="1" fill="#442434" />
</svg>